<svg width="55" height="55" viewBox="0 0 55 55" fill="none" xmlns="http://www.w3.org/2000/svg">
<rect width="55" height="55" rx="10" fill="#5E47D2"/>
<path fill-rule="evenodd" clip-rule="evenodd" d="M40.7088 38C40.8961 37.5625 41 37.0794 41 36.5714C41 34.599 39.433 33 37.5 33C35.567 33 34 34.599 34 36.5714C34 37.0794 34.1039 37.5625 34.2912 38H40.7088Z" fill="white"/>
<path d="M25.368 38L20.856 30.224H17.496V38H13.08V15.6H22.04C24.1093 15.6 25.8693 16.3253 27.32 17.776C28.7707 19.2267 29.496 20.976 29.496 23.024C29.496 24.4107 29.1013 25.7013 28.312 26.896C27.5227 28.0693 26.4773 28.9547 25.176 29.552L30.136 38H25.368ZM17.496 19.728V26.352H22.04C22.872 26.352 23.5867 26.032 24.184 25.392C24.7813 24.7307 25.08 23.9413 25.08 23.024C25.08 22.1067 24.7813 21.328 24.184 20.688C23.5867 20.048 22.872 19.728 22.04 19.728H17.496Z" fill="white"/>
</svg>
